inDegrees=yes
name=ik_S57_A13_T01
DataType=double
version=3
OpenSimVersion=4.3-2021-08-27-4bc7ad9
endheader
time	pelvis_tilt	pelvis_list	pelvis_rotation	pelvis_tx	pelvis_ty	pelvis_tz	hip_flexion_r	hip_adduction_r	hip_rotation_r	knee_angle_r	knee_angle_r_beta	ankle_angle_r	subtalar_angle_r	mtp_angle_r	hip_flexion_l	hip_adduction_l	hip_rotation_l	knee_angle_l	knee_angle_l_beta	ankle_angle_l	subtalar_angle_l	mtp_angle_l	lumbar_extension	lumbar_bending	lumbar_rotation	arm_flex_r	arm_add_r	arm_rot_r	elbow_flex_r	pro_sup_r	wrist_flex_r	wrist_dev_r	arm_flex_l	arm_add_l	arm_rot_l	elbow_flex_l	pro_sup_l	wrist_flex_l	wrist_dev_l
3.720000000000003	1.616019958611528	1.160137379585958	21.23668280731674	0	0.9399999999999999	0	18.743737453127	-7.172362239483776	-5.948734409607415	22.37534567337711	0.3905234532722983	0	0	0	18.743737453127	-7.172362239483776	-5.948734409607415	22.37534567337711	0.3905234532722983	0	0	0	1.29893451616783	2.010748630813963	7.045149532763443	54.0904828313929	6.588244802532625	-5.42629608229756	46.32282663882852	104.9951432617227	0	0	69.37468226340097	-39.20244912597291	51.77254974655968	9.573761652767695	97.57041399394254	0	0
3.740000000000003	1.673048330105834	1.09679235113463	21.60355607304647	0	0.9399999999999999	0	18.75288027871353	-7.175387437087047	-5.951523601943635	22.38428050266248	0.3906793954614316	0	0	0	18.75288027871353	-7.175387437087047	-5.951523601943635	22.38428050266248	0.3906793954614316	0	0	0	1.329878600554649	1.929497872725424	7.00303515457406	54.30761585310455	7.004873575828917	-4.93014343564094	45.84593303870351	103.0369926778257	0	0	69.58240170458689	-38.88366342835871	52.29626517026983	10.44096562890998	97.51742596496211	0	0
3.760000000000003	1.652426661439397	1.095782878475159	21.69741698778618	0	0.9399999999999999	0	18.76376138728132	-7.178993558891757	-5.954846533428314	22.39489370270334	0.3908646307463174	0	0	0	18.76376138728132	-7.178993558891757	-5.954846533428314	22.39489370270334	0.3908646307463174	0	0	0	1.312287730388065	1.932895196885312	6.909222819360417	54.629675745572	7.514627423957492	-4.467356228502902	45.53740535337507	102.967972802306	0	0	69.69596517098283	-38.89692383643539	52.23611554461248	11.41014226849574	97.41065614813246	0	0
3.780000000000003	1.705541624389248	1.005135806024622	22.0234143809168	0	0.9399999999999999	0	18.77655305563155	-7.183181544134243	-5.958726162254716	22.40749042210516	0.3910844849748289	0	0	0	18.77655305563155	-7.183181544134243	-5.958726162254716	22.40749042210516	0.3910844849748289	0	0	0	1.321756018028256	1.827969641749589	6.948603358204555	54.69663007907152	7.429128774979889	-4.775319948693379	45.41411405806169	99.87469013774967	0	0	70.17582471827191	-38.60229560444989	53.13631089877244	12.13734336432869	97.08797293050031	0	0
3.800000000000003	1.725186747337232	0.9485680875091903	22.26562683972244	0	0.9399999999999999	0	18.7918611608412	-7.18824168541799	-5.963395605171887	22.42243027936325	0.3913452346737608	0	0	0	18.7918611608412	-7.18824168541799	-5.963395605171887	22.42243027936325	0.3913452346737608	0	0	0	1.320016048498759	1.766135504205591	6.898901490986416	55.07671352377601	7.898212563739151	-4.682779398116391	45.00176456217275	98.4981832792389	0	0	70.78239799365667	-38.45212077364808	53.6190477808421	13.26988318177091	98.08243541898689	0	0
3.820000000000003	1.759419969417918	0.9282134829902328	22.45659574485138	0	0.9399999999999999	0	18.80065348081409	-7.191141188892541	-5.966074280072261	22.43102226063829	0.3914951930362799	0	0	0	18.80065348081409	-7.191141188892541	-5.966074280072261	22.43102226063829	0.3914951930362799	0	0	0	1.344948896581409	1.731864746897005	6.825541909224999	55.4639306437699	8.459765664913274	-4.497412450144223	44.4706144815973	97.03776540928862	0	0	71.14006100680113	-38.34877578350324	54.07448865039675	13.63288186549425	98.25149141875556	0	0
3.840000000000003	1.775362944953604	0.9174359239916086	22.63412423026346	0	0.9399999999999999	0	18.8143020045873	-7.195658516328005	-5.970241717705953	22.44431017562105	0.391727110903454	0	0	0	18.8143020045873	-7.195658516328005	-5.970241717705953	22.44431017562105	0.391727110903454	0	0	0	1.356700676942702	1.713553711619749	6.764950959681469	55.92064017271122	8.969005757612708	-4.213096322424589	43.85436589503641	95.96748214990866	0	0	71.22681010944906	-38.24982242062963	54.16504555133877	13.84295690725585	98.42615754776395	0	0
3.860000000000003	1.808318545946966	0.923476211571444	22.72169476802166	0	0.9399999999999999	0	18.82977099999951	-7.20076449194089	-5.974958436658036	22.45939259960067	0.3919903488610802	0	0	0	18.82977099999951	-7.20076449194089	-5.974958436658036	22.45939259960067	0.3919903488610802	0	0	0	1.390538794944085	1.703900670615701	6.69601563066772	56.32067925822744	9.43666262808528	-3.970265044659675	43.09778360969042	95.78388220666338	0	0	71.59960637957715	-38.10666913529692	54.66974517158868	13.84319978025794	98.70089652173867	0	0
3.880000000000003	1.846782335511351	0.9197471042705747	22.83021583560123	0	0.9399999999999999	0	18.84457445615883	-7.205641567986133	-5.979468140206016	22.47383628943557	0.3922424388048359	0	0	0	18.84457445615883	-7.205641567986133	-5.979468140206016	22.47383628943557	0.3922424388048359	0	0	0	1.425013922029535	1.684434135977824	6.667917515942919	56.72505027325975	9.784373611098291	-3.783794645175762	42.40702148182339	95.47805459306882	0	0	72.08495634986735	-37.83566782024819	55.31598997096975	13.64525111611851	98.81129967378534	0	0
3.900000000000003	1.958989632781845	0.9216801062708172	23.02482024638201	0	0.9399999999999999	0	18.85267920230091	-7.208311442266312	-5.981937374127257	22.48173914146674	0.3923803695930779	0	0	0	18.85267920230091	-7.208311442266312	-5.981937374127257	22.48173914146674	0.3923803695930779	0	0	0	1.529024801108312	1.642718013636689	6.684795703042046	56.9451631210494	9.975626158615846	-3.547898291600768	41.96864567911231	94.58748810272624	0	0	72.05880847869416	-37.6790424884414	55.54451613991711	13.77879538168164	98.85673559154695	0	0
3.920000000000003	1.978565167356534	0.939729343844673	23.18659735290186	0	0.9399999999999999	0	18.86925812646486	-7.213765751542795	-5.986985437956496	22.49790976739141	0.3926626002575716	0	0	0	18.86925812646486	-7.213765751542795	-5.986985437956496	22.49790976739141	0.3926626002575716	0	0	0	1.556128731728301	1.64784582816644	6.558044662141658	57.43045218271996	10.42678586090212	-2.560787678942483	41.36528549238429	93.28336201346684	0	0	72.94405185676912	-37.21139649536472	56.3954345697865	13.1145436795723	98.41696741297467	0	0
3.940000000000003	1.973780753769662	0.9399163726828146	23.1814575076899	0	0.9399999999999999	0	18.87999054627443	-7.217282273690792	-5.990246164795046	22.50840595044504	0.3928457932107496	0	0	0	18.87999054627443	-7.217282273690792	-5.990246164795046	22.50840595044504	0.3928457932107496	0	0	0	1.552306691967785	1.649017601517438	6.545943998365353	57.69217543987374	10.66431732855067	-2.449967914764473	41.17967447373903	92.74300845200368	0	0	73.40087306897179	-37.00982933704038	56.74012934061293	12.78776774722904	98.10914770888027	0	0
3.960000000000003	2.00437597060294	0.9469274283825072	23.15459000308497	0	0.9399999999999999	0	18.89682527394619	-7.222820768215967	-5.995373980037623	22.5247974874546	0.393131879501029	0	0	0	18.89682527394619	-7.222820768215967	-5.995373980037623	22.5247974874546	0.393131879501029	0	0	0	1.582623796702404	1.644491400764842	6.591469354872595	57.89159888488184	10.79482332728588	-2.712450491493982	41.0572837575253	92.08459119353921	0	0	73.7960928665924	-36.7491099305695	57.14592010576101	12.32438970825746	97.82887788489359	0	0
3.980000000000003	2.014014850682617	0.9466576000502664	23.11767284944219	0	0.9399999999999999	0	18.91354413663791	-7.228310852670527	-6.000462024139379	22.54108614369516	0.3934161701831522	0	0	0	18.91354413663791	-7.228310852670527	-6.000462024139379	22.54108614369516	0.3934161701831522	0	0	0	1.591070310278391	1.641116635543921	6.626759001147617	57.86451353046516	10.80514374864622	-2.719986102650073	41.05687695987613	92.10390323585854	0	0	74.17672655056592	-36.55897522480774	57.42055767095859	11.95355054493504	97.71921073102249	0	0
